<svg width="58" height="40" viewBox="0 0 58 40" fill="none" xmlns="http://www.w3.org/2000/svg">
<path d="M12.714 14.7826C15.1907 14.7826 17.6117 15.517 19.6709 16.8929C21.7302 18.2689 23.3351 20.2245 24.2829 22.5126C25.2307 24.8007 25.4786 27.3185 24.9955 29.7475C24.5123 32.1766 23.3197 34.4078 21.5685 36.159C19.8172 37.9103 17.586 39.1029 15.157 39.586C12.7279 40.0692 10.2102 39.8212 7.92207 38.8735C5.63397 37.9257 3.67829 36.3207 2.30235 34.2615C0.926414 32.2023 0.192009 29.7812 0.192009 27.3046L0.134766 25.5158C0.134766 18.8737 2.77333 12.5036 7.47001 7.80692C12.1667 3.11024 18.5367 0.47168 25.1788 0.47168V7.62713C22.8286 7.62081 20.5005 8.08046 18.329 8.9795C16.1576 9.87854 14.1859 11.1991 12.528 12.8649C11.8836 13.5081 11.2892 14.1994 10.7499 14.9328C11.3903 14.8327 12.045 14.779 12.7105 14.779L12.714 14.7826ZM44.9136 14.7826C47.3902 14.7826 49.8112 15.517 51.8704 16.8929C53.9297 18.2689 55.5347 20.2245 56.4824 22.5126C57.4302 24.8007 57.6782 27.3185 57.195 29.7475C56.7118 32.1766 55.5192 34.4078 53.768 36.159C52.0168 37.9103 49.7855 39.1029 47.3565 39.586C44.9275 40.0692 42.4097 39.8212 40.1216 38.8735C37.8335 37.9257 35.8778 36.3207 34.5019 34.2615C33.1259 32.2023 32.3915 29.7812 32.3915 27.3046L32.3343 25.5158C32.3343 18.8737 34.9729 12.5036 39.6695 7.80692C44.3662 3.11024 50.7363 0.47168 57.3784 0.47168V7.62713C55.0282 7.62081 52.7 8.08046 50.5286 8.9795C48.3571 9.87854 46.3854 11.1991 44.7275 12.8649C44.0832 13.5081 43.4887 14.1994 42.9494 14.9328C43.5898 14.8327 44.2445 14.779 44.9136 14.779V14.7826Z" fill="#4269E2"/>
</svg>
