<svg width="72" height="72" viewBox="0 0 72 72" fill="none" xmlns="http://www.w3.org/2000/svg">
<path fill-rule="evenodd" clip-rule="evenodd" d="M23.4648 52.7339C25.8554 52.7339 27.8114 50.7765 27.8114 48.3874V24.958C27.8114 22.5658 25.8554 20.6099 23.4648 20.6099C21.0726 20.6099 19.1182 22.5673 19.1182 24.958V48.3874C19.1182 50.778 21.0726 52.7339 23.4648 52.7339Z" fill="#ED1B25"/>
<path fill-rule="evenodd" clip-rule="evenodd" d="M32.1581 59.7927C34.5503 59.7927 36.5062 57.8382 36.5062 55.4461V18.9558C36.5062 16.5636 34.5503 14.6077 32.1581 14.6077C29.7675 14.6077 27.8115 16.5651 27.8115 18.9558V55.4461C27.8115 57.8382 29.7675 59.7927 32.1581 59.7927Z" fill="#FABA1C"/>
<path fill-rule="evenodd" clip-rule="evenodd" d="M40.8544 56.7932C43.2465 56.7932 45.201 54.8372 45.201 52.4451V16.6611C45.201 14.2674 43.245 12.313 40.8544 12.313C38.4623 12.313 36.5078 14.2674 36.5078 16.6611V52.4451C36.5078 54.8372 38.4638 56.7932 40.8544 56.7932Z" fill="#068ED4"/>
<path fill-rule="evenodd" clip-rule="evenodd" d="M49.5493 54.4991C51.9414 54.4991 53.8959 52.5416 53.8959 50.151V22.1335C53.8959 19.7414 51.9414 17.7869 49.5493 17.7869C47.1571 17.7869 45.2012 19.7414 45.2012 22.1335V50.151C45.2012 52.5431 47.1571 54.4991 49.5493 54.4991Z" fill="#009E4F"/>
<path fill-rule="evenodd" clip-rule="evenodd" d="M27.7021 23.3093C14.6246 32.0886 20.9015 52.4421 36.5191 52.4421C52.1367 52.4421 58.4211 32.1036 45.3345 23.3093C40.0477 19.7551 32.9905 19.7581 27.7021 23.3093Z" fill="#FEFEFE"/>
<path fill-rule="evenodd" clip-rule="evenodd" d="M29.853 26.5396C19.9675 33.1757 24.7125 48.5593 36.5193 48.5593C48.326 48.5593 53.0741 33.1863 43.1841 26.5396C39.1861 23.8532 33.8509 23.8547 29.853 26.5396Z" fill="#D5D5D7"/>
<path fill-rule="evenodd" clip-rule="evenodd" d="M31.2019 28.561C23.3146 33.8569 27.0998 46.13 36.5189 46.13C45.9381 46.13 49.7278 33.8644 41.836 28.561C38.6454 26.4194 34.3909 26.4194 31.2019 28.561Z" fill="#5F5F5F"/>
<path fill-rule="evenodd" clip-rule="evenodd" d="M31.8276 29.4999C24.8685 34.171 28.2085 45.0028 36.5183 45.0028C44.8282 45.0028 48.1726 34.1801 41.2105 29.4999C38.3958 27.6104 34.6408 27.6104 31.8276 29.4999Z" fill="#434443"/>
<path fill-rule="evenodd" clip-rule="evenodd" d="M33.915 32.6359C30.0559 35.2287 31.9078 41.2355 36.5185 41.2355C41.1292 41.2355 42.9825 35.2302 39.1204 32.6359C37.5598 31.5854 35.4771 31.5885 33.915 32.6359Z" fill="#22201E"/>
<path fill-rule="evenodd" clip-rule="evenodd" d="M33.5566 34.9629C31.732 33.7374 32.6073 30.897 34.7867 30.897C36.966 30.897 37.8414 33.7343 36.0167 34.9629C35.2787 35.4579 34.2947 35.4564 33.5566 34.9629Z" fill="#BABCBE"/>
<path fill-rule="evenodd" clip-rule="evenodd" d="M38.619 41.1824C37.7221 40.5784 38.1525 39.1802 39.2245 39.1802C40.2965 39.1802 40.7284 40.5769 39.83 41.1824C39.4676 41.427 38.9814 41.427 38.619 41.1824Z" fill="#FEFEFE"/>
</svg>
