<svg width="101" height="102" viewBox="0 0 101 102" fill="none" xmlns="http://www.w3.org/2000/svg">
<g filter="url(#filter0_d_388_3074)">
<rect x="3" y="0.488281" width="94.9033" height="94.9036" rx="14.6005" fill="white"/>
</g>
<g filter="url(#filter1_d_388_3074)">
<path fill-rule="evenodd" clip-rule="evenodd" d="M44.2216 15.4883C41.1621 15.4883 38.6818 17.9685 38.6818 21.0281V34.0301C38.2494 35.2895 37.1257 35.8997 36.0436 36.1701H23.5398C20.4802 36.1701 18 38.6503 18 41.7099V54.2667C18 57.3262 20.4802 59.8065 23.5398 59.8065H35.0106C36.8654 60.3353 38.2089 61.8967 38.6818 63.1288V74.9485C38.6818 78.008 41.1621 80.4883 44.2216 80.4883H56.7784C59.8379 80.4883 62.3182 78.008 62.3182 74.9485V62.387C62.9604 61.3315 64.1239 60.2331 65.6201 59.8065H77.4602C80.5198 59.8065 83 57.3262 83 54.2667V41.7099C83 38.6503 80.5198 36.1701 77.4602 36.1701H64.5871C63.7386 35.9581 62.8645 35.5371 62.3182 34.7581V21.0281C62.3182 17.9685 59.8379 15.4883 56.7784 15.4883H44.2216Z" fill="url(#paint0_linear_388_3074)"/>
<path d="M38.6818 34.0301L38.8565 34.09L38.8665 34.0609V34.0301H38.6818ZM36.0436 36.1701V36.3548H36.0664L36.0884 36.3492L36.0436 36.1701ZM35.0106 59.8065L35.0612 59.6289L35.0364 59.6218H35.0106V59.8065ZM38.6818 63.1288H38.8665V63.0946L38.8542 63.0626L38.6818 63.1288ZM62.3182 62.387L62.1604 62.2911L62.1335 62.3353V62.387H62.3182ZM65.6201 59.8065V59.6218H65.5943L65.5695 59.6289L65.6201 59.8065ZM64.5871 36.1701L64.5423 36.3493L64.5643 36.3548H64.5871V36.1701ZM62.3182 34.7581H62.1335V34.8164L62.167 34.8641L62.3182 34.7581ZM38.8665 21.0281C38.8665 18.0705 41.264 15.6729 44.2216 15.6729V15.3036C41.0601 15.3036 38.4972 17.8665 38.4972 21.0281H38.8665ZM38.8665 34.0301V21.0281H38.4972V34.0301H38.8665ZM36.0884 36.3492C37.1979 36.072 38.3947 35.435 38.8565 34.09L38.5072 33.9701C38.1041 35.144 37.0535 35.7274 35.9989 35.9909L36.0884 36.3492ZM23.5398 36.3548H36.0436V35.9854H23.5398V36.3548ZM18.1847 41.7099C18.1847 38.7523 20.5822 36.3548 23.5398 36.3548V35.9854C20.3783 35.9854 17.8153 38.5484 17.8153 41.7099H18.1847ZM18.1847 54.2667V41.7099H17.8153V54.2667H18.1847ZM23.5398 59.6218C20.5822 59.6218 18.1847 57.2242 18.1847 54.2667H17.8153C17.8153 57.4282 20.3783 59.9911 23.5398 59.9911V59.6218ZM35.0106 59.6218H23.5398V59.9911H35.0106V59.6218ZM38.8542 63.0626C38.3637 61.7845 36.9798 60.1759 35.0612 59.6289L34.96 59.984C36.7509 60.4947 38.0542 62.0088 38.5094 63.1949L38.8542 63.0626ZM38.8665 74.9485V63.1288H38.4972V74.9485H38.8665ZM44.2216 80.3036C41.264 80.3036 38.8665 77.9061 38.8665 74.9485H38.4972C38.4972 78.11 41.0601 80.6729 44.2216 80.6729V80.3036ZM56.7784 80.3036H44.2216V80.6729H56.7784V80.3036ZM62.1335 74.9485C62.1335 77.9061 59.736 80.3036 56.7784 80.3036V80.6729C59.9399 80.6729 62.5028 78.11 62.5028 74.9485H62.1335ZM62.1335 62.387V74.9485H62.5028V62.387H62.1335ZM62.4759 62.483C63.0995 61.4582 64.2285 60.3953 65.6707 59.984L65.5695 59.6289C64.0193 60.0709 62.8213 61.2048 62.1604 62.2911L62.4759 62.483ZM77.4602 59.6218H65.6201V59.9911H77.4602V59.6218ZM82.8153 54.2667C82.8153 57.2242 80.4178 59.6218 77.4602 59.6218V59.9911C80.6217 59.9911 83.1847 57.4282 83.1847 54.2667H82.8153ZM82.8153 41.7099V54.2667H83.1847V41.7099H82.8153ZM77.4602 36.3548C80.4178 36.3548 82.8153 38.7523 82.8153 41.7099H83.1847C83.1847 38.5484 80.6217 35.9854 77.4602 35.9854V36.3548ZM64.5871 36.3548H77.4602V35.9854H64.5871V36.3548ZM62.167 34.8641C62.7489 35.6939 63.6714 36.1316 64.5423 36.3493L64.6318 35.9909C63.8057 35.7845 62.9801 35.3804 62.4694 34.6521L62.167 34.8641ZM62.1335 21.0281V34.7581H62.5028V21.0281H62.1335ZM56.7784 15.6729C59.736 15.6729 62.1335 18.0705 62.1335 21.0281H62.5028C62.5028 17.8665 59.9399 15.3036 56.7784 15.3036V15.6729ZM44.2216 15.6729H56.7784V15.3036H44.2216V15.6729Z" fill="#6C31B6"/>
<g filter="url(#filter2_d_388_3074)">
<circle cx="50.315" cy="47.065" r="11.2642" fill="url(#paint1_linear_388_3074)"/>
</g>
<path d="M49.681 46.6786V46.9671C49.681 47.3639 49.6293 47.7197 49.5259 48.0347C49.4226 48.3497 49.2747 48.6178 49.0823 48.839C48.8924 49.0602 48.664 49.2297 48.3971 49.3475C48.1302 49.4629 47.8344 49.5206 47.5098 49.5206C47.1877 49.5206 46.8931 49.4629 46.6262 49.3475C46.3617 49.2297 46.1321 49.0602 45.9374 48.839C45.7426 48.6178 45.5911 48.3497 45.4829 48.0347C45.3771 47.7197 45.3242 47.3639 45.3242 46.9671V46.6786C45.3242 46.2819 45.3771 45.9272 45.4829 45.6146C45.5887 45.2997 45.7378 45.0316 45.9301 44.8104C46.1249 44.5868 46.3545 44.4172 46.619 44.3018C46.8859 44.184 47.1804 44.1251 47.5026 44.1251C47.8272 44.1251 48.123 44.184 48.3899 44.3018C48.6567 44.4172 48.8864 44.5868 49.0787 44.8104C49.2711 45.0316 49.4189 45.2997 49.5223 45.6146C49.6281 45.9272 49.681 46.2819 49.681 46.6786ZM48.7758 46.9671V46.6714C48.7758 46.378 48.7469 46.1196 48.6892 45.896C48.6339 45.6699 48.551 45.4812 48.4404 45.3297C48.3322 45.1758 48.1987 45.0604 48.04 44.9835C47.8813 44.9041 47.7022 44.8645 47.5026 44.8645C47.3031 44.8645 47.1251 44.9041 46.9688 44.9835C46.8126 45.0604 46.6791 45.1758 46.5685 45.3297C46.4603 45.4812 46.3774 45.6699 46.3197 45.896C46.262 46.1196 46.2331 46.378 46.2331 46.6714V46.9671C46.2331 47.2605 46.262 47.5201 46.3197 47.7462C46.3774 47.9722 46.4615 48.1633 46.5721 48.3196C46.6851 48.4735 46.8198 48.5901 46.9761 48.6695C47.1324 48.7464 47.3103 48.7849 47.5098 48.7849C47.7118 48.7849 47.8909 48.7464 48.0472 48.6695C48.2035 48.5901 48.3358 48.4735 48.444 48.3196C48.5522 48.1633 48.6339 47.9722 48.6892 47.7462C48.7469 47.5201 48.7758 47.2605 48.7758 46.9671ZM51.4916 44.1972V49.4485H50.5863V44.1972H51.4916ZM54.6474 44.1972L52.5194 46.7255L51.3076 48.0094L51.1489 47.1114L52.0145 46.0438L53.5437 44.1972H54.6474ZM53.6736 49.4485L51.946 46.9599L52.5699 46.3432L54.7483 49.4485H53.6736Z" fill="white"/>
<path d="M47.915 24.3518L50.5003 21.7666L51.7929 23.0592L53.0855 24.3518" stroke="white" stroke-width="0.738636" stroke-linecap="round"/>
<path d="M27.9719 49.4656L25.3867 46.8803L26.6793 45.5877L27.9719 44.2951" stroke="white" stroke-width="0.738636" stroke-linecap="round"/>
<path d="M72.6931 44.2708L75.2683 46.866L73.9707 48.1536L72.6731 49.4412" stroke="white" stroke-width="0.738636" stroke-linecap="round"/>
<path d="M52.7158 69.4087L50.1306 71.9939L48.838 70.7013L47.5454 69.4087" stroke="white" stroke-width="0.738636" stroke-linecap="round"/>
</g>
<defs>
<filter id="filter0_d_388_3074" x="0.0798948" y="0.488281" width="100.744" height="100.744" filterUnits="userSpaceOnUse" color-interpolation-filters="sRGB">
<feFlood flood-opacity="0" result="BackgroundImageFix"/>
<feColorMatrix in="SourceAlpha" type="matrix" values="0 0 0 0 0 0 0 0 0 0 0 0 0 0 0 0 0 0 127 0" result="hardAlpha"/>
<feOffset dy="2.92011"/>
<feGaussianBlur stdDeviation="1.46005"/>
<feComposite in2="hardAlpha" operator="out"/>
<feColorMatrix type="matrix" values="0 0 0 0 0 0 0 0 0 0 0 0 0 0 0 0 0 0 0.25 0"/>
<feBlend mode="normal" in2="BackgroundImageFix" result="effect1_dropShadow_388_3074"/>
<feBlend mode="normal" in="SourceGraphic" in2="effect1_dropShadow_388_3074" result="shape"/>
</filter>
<filter id="filter1_d_388_3074" x="17.8154" y="15.3037" width="72.7555" height="72.7555" filterUnits="userSpaceOnUse" color-interpolation-filters="sRGB">
<feFlood flood-opacity="0" result="BackgroundImageFix"/>
<feColorMatrix in="SourceAlpha" type="matrix" values="0 0 0 0 0 0 0 0 0 0 0 0 0 0 0 0 0 0 127 0" result="hardAlpha"/>
<feOffset dx="3.69318" dy="3.69318"/>
<feGaussianBlur stdDeviation="1.84659"/>
<feComposite in2="hardAlpha" operator="out"/>
<feColorMatrix type="matrix" values="0 0 0 0 0 0 0 0 0 0 0 0 0 0 0 0 0 0 0.5 0"/>
<feBlend mode="normal" in2="BackgroundImageFix" result="effect1_dropShadow_388_3074"/>
<feBlend mode="normal" in="SourceGraphic" in2="effect1_dropShadow_388_3074" result="shape"/>
</filter>
<filter id="filter2_d_388_3074" x="36.0962" y="32.8462" width="28.4374" height="28.4374" filterUnits="userSpaceOnUse" color-interpolation-filters="sRGB">
<feFlood flood-opacity="0" result="BackgroundImageFix"/>
<feColorMatrix in="SourceAlpha" type="matrix" values="0 0 0 0 0 0 0 0 0 0 0 0 0 0 0 0 0 0 127 0" result="hardAlpha"/>
<feOffset/>
<feGaussianBlur stdDeviation="1.47727"/>
<feComposite in2="hardAlpha" operator="out"/>
<feColorMatrix type="matrix" values="0 0 0 0 0 0 0 0 0 0 0 0 0 0 0 0 0 0 0.3 0"/>
<feBlend mode="normal" in2="BackgroundImageFix" result="effect1_dropShadow_388_3074"/>
<feBlend mode="normal" in="SourceGraphic" in2="effect1_dropShadow_388_3074" result="shape"/>
</filter>
<linearGradient id="paint0_linear_388_3074" x1="25.3864" y1="21.582" x2="68.2273" y2="74.7639" gradientUnits="userSpaceOnUse">
<stop offset="0.075518" stop-color="#412B78"/>
<stop offset="1" stop-color="#7850DE"/>
</linearGradient>
<linearGradient id="paint1_linear_388_3074" x1="61.5792" y1="52.4201" x2="41.636" y2="39.8633" gradientUnits="userSpaceOnUse">
<stop offset="0.075518" stop-color="#412B78"/>
<stop offset="1" stop-color="#7850DE"/>
</linearGradient>
</defs>
</svg>
