<svg width="101" height="102" viewBox="0 0 101 102" fill="none" xmlns="http://www.w3.org/2000/svg">
<g filter="url(#filter0_d_388_3095)">
<rect x="3" y="0.488281" width="94.9033" height="94.9036" rx="14.6005" fill="white"/>
</g>
<g filter="url(#filter1_d_388_3095)">
<mask id="mask0_388_3095" style="mask-type:alpha" maskUnits="userSpaceOnUse" x="29" y="23" width="44" height="50">
<path d="M50.6871 68.7758C51.0682 68.973 51.4949 68.9756 51.8757 68.783C55.0174 67.1948 69.5501 59.2282 69.5448 47.7658L69.5384 33.7914C69.5381 33.1808 69.1523 32.6344 68.5759 32.4283L51.7398 26.4067C51.4305 26.2961 51.0933 26.2941 50.7841 26.401L33.9534 32.2185C33.3772 32.4176 32.9919 32.9594 32.9922 33.5699L32.9986 47.5443C33.0039 59.0068 47.544 67.1495 50.6871 68.7758Z" fill="white" stroke="black" stroke-width="6.19048" stroke-linecap="round" stroke-linejoin="round"/>
</mask>
<g mask="url(#mask0_388_3095)">
<path d="M35.7593 30.0684L54.4299 46.6546L36.8404 64.2061L18.1699 47.6198L35.7593 30.0684Z" fill="#3C90FF"/>
<path d="M67.4243 62.9389L50.1406 47.5847L33.6604 64.0293L50.9441 79.3835L67.4243 62.9389Z" fill="#A62016"/>
<path d="M68.0674 30.8781L51.1914 15.886L35.4073 31.636L52.2833 46.6281L68.0674 30.8781Z" fill="#C09107"/>
<path d="M83.0643 41.6658L68.8398 29.0293L49.9434 47.8849L64.1679 60.5215L83.0643 41.6658Z" fill="#15963A"/>
<path d="M55.2841 42.7158L54.6164 42.7136L54.6121 41.4681C54.606 39.7494 53.1055 38.3496 51.2628 38.3435C49.4201 38.3374 47.9295 39.7273 47.9356 41.446L47.9399 42.6914L47.2723 42.6891C46.5379 42.6867 45.939 43.2452 45.9414 43.9302L45.9634 50.1572C45.9658 50.8422 46.5687 51.4046 47.3031 51.4071L55.3149 51.4337C56.0493 51.4362 56.6482 50.8777 56.6458 50.1927L56.6238 43.9657C56.6214 43.2806 56.0185 42.7182 55.2841 42.7158ZM51.298 48.3068C50.5636 48.3044 49.9607 47.742 49.9583 47.057C49.9559 46.372 50.5548 45.8136 51.2892 45.816C52.0236 45.8185 52.6265 46.3809 52.6289 47.0659C52.6313 47.7508 52.0324 48.3093 51.298 48.3068ZM53.3479 42.7093L49.2084 42.6956L49.2041 41.4502C49.2003 40.3853 50.1253 39.5229 51.267 39.5267C52.4086 39.5304 53.3397 40.3991 53.3435 41.4639L53.3479 42.7093Z" fill="white"/>
<path d="M51.2739 48.3936C52.0414 48.3961 52.6615 47.8162 52.659 47.0984C52.6564 46.3805 52.0322 45.7965 51.2647 45.7939C50.4972 45.7914 49.8771 46.3713 49.8796 47.0891C49.8821 47.807 50.5064 48.391 51.2739 48.3936Z" fill="#D9D9D9"/>
</g>
<mask id="mask1_388_3095" style="mask-type:alpha" maskUnits="userSpaceOnUse" x="28" y="23" width="43" height="50">
<path d="M48.8379 69.4991C49.2254 69.7049 49.664 69.707 50.052 69.5048C53.1855 67.8721 67.3788 59.8417 67.3906 48.3311L67.4051 34.246C67.4057 33.6398 67.0261 33.0968 66.4558 32.8882L49.9779 26.8608C49.6619 26.7453 49.3159 26.7436 48.9997 26.8562L32.5095 32.7284C31.9388 32.9316 31.5581 33.4711 31.5574 34.0772L31.543 48.1624C31.5311 59.6729 45.7078 67.8369 48.8379 69.4991Z" fill="white" stroke="black" stroke-width="6.19048" stroke-linecap="round" stroke-linejoin="round"/>
</mask>
<g mask="url(#mask1_388_3095)">
<path d="M34.2754 30.5635L52.5647 47.2348L35.2853 64.9316L16.9961 48.2602L34.2754 30.5635Z" fill="#3C90FF"/>
<path d="M67.7365 63.7324L49.4473 47.061L32.168 64.7577L50.4572 81.4291L67.7365 63.7324Z" fill="#FF3122"/>
<path d="M70.2964 29.5208L51.7812 12.6436L33.3014 31.5698L51.8166 48.447L70.2964 29.5208Z" fill="#FFCC39"/>
<path d="M85.0322 46.1527L67.5254 30.1946L50.2461 47.8913L67.7529 63.8494L85.0322 46.1527Z" fill="#1DBA4A"/>
<path d="M53.4082 43.2677L52.7532 43.2664L52.7508 42.0125C52.7474 40.2822 51.2776 38.875 49.4701 38.8716C47.6626 38.8681 46.1985 40.2697 46.2019 42.0001L46.2044 43.2539L45.5495 43.2526C44.8291 43.2513 44.2408 43.8144 44.2422 44.504L44.2546 50.7734C44.2559 51.463 44.8464 52.0284 45.5668 52.0298L53.4255 52.0448C54.1459 52.0461 54.7342 51.483 54.7328 50.7934L54.7204 44.524C54.7191 43.8344 54.1285 43.2691 53.4082 43.2677ZM49.49 48.9026C48.7696 48.9012 48.1791 48.3358 48.1777 47.6462C48.1764 46.9566 48.7647 46.3935 49.485 46.3949C50.2054 46.3962 50.7959 46.9616 50.7973 47.6512C50.7986 48.3408 50.2104 48.904 49.49 48.9026ZM51.509 43.264L47.4486 43.2563L47.4462 42.0024C47.4441 40.9304 48.3526 40.0606 49.4725 40.0628C50.5924 40.0649 51.5044 40.9381 51.5065 42.0102L51.509 43.264Z" fill="white"/>
<path d="M49.4679 48.9895C50.2207 48.991 50.8299 48.4062 50.8284 47.6835C50.827 46.9607 50.2156 46.3737 49.4627 46.3722C48.7099 46.3708 48.1008 46.9555 48.1022 47.6783C48.1036 48.401 48.7151 48.9881 49.4679 48.9895Z" fill="#D9D9D9"/>
</g>
</g>
<defs>
<filter id="filter0_d_388_3095" x="0.0798948" y="0.488281" width="100.744" height="100.744" filterUnits="userSpaceOnUse" color-interpolation-filters="sRGB">
<feFlood flood-opacity="0" result="BackgroundImageFix"/>
<feColorMatrix in="SourceAlpha" type="matrix" values="0 0 0 0 0 0 0 0 0 0 0 0 0 0 0 0 0 0 127 0" result="hardAlpha"/>
<feOffset dy="2.92011"/>
<feGaussianBlur stdDeviation="1.46005"/>
<feComposite in2="hardAlpha" operator="out"/>
<feColorMatrix type="matrix" values="0 0 0 0 0 0 0 0 0 0 0 0 0 0 0 0 0 0 0.25 0"/>
<feBlend mode="normal" in2="BackgroundImageFix" result="effect1_dropShadow_388_3095"/>
<feBlend mode="normal" in="SourceGraphic" in2="effect1_dropShadow_388_3095" result="shape"/>
</filter>
<filter id="filter1_d_388_3095" x="28.4473" y="23.2271" width="65.859" height="61.9041" filterUnits="userSpaceOnUse" color-interpolation-filters="sRGB">
<feFlood flood-opacity="0" result="BackgroundImageFix"/>
<feColorMatrix in="SourceAlpha" type="matrix" values="0 0 0 0 0 0 0 0 0 0 0 0 0 0 0 0 0 0 127 0" result="hardAlpha"/>
<feOffset dx="15.4762" dy="6.19048"/>
<feGaussianBlur stdDeviation="3.09524"/>
<feComposite in2="hardAlpha" operator="out"/>
<feColorMatrix type="matrix" values="0 0 0 0 0 0 0 0 0 0 0 0 0 0 0 0 0 0 0.25 0"/>
<feBlend mode="normal" in2="BackgroundImageFix" result="effect1_dropShadow_388_3095"/>
<feBlend mode="normal" in="SourceGraphic" in2="effect1_dropShadow_388_3095" result="shape"/>
</filter>
</defs>
</svg>
