<svg width="101" height="102" viewBox="0 0 101 102" fill="none" xmlns="http://www.w3.org/2000/svg">
<g filter="url(#filter0_d_388_3077)">
<rect x="3" y="0.488281" width="94.9033" height="94.9036" rx="14.6005" fill="white"/>
</g>
<path d="M54.0287 16.0927L52.0508 24.0049C54.8528 18.4005 59.3859 14.1971 64.5784 10.4883C60.7871 14.8564 57.3255 19.2246 55.2652 23.6752C58.809 18.6477 63.5893 15.928 68.9462 14.0321C61.7759 20.3783 56.0893 27.3015 51.8034 34.1421L48.3418 32.6587C48.9189 27.1368 50.9793 21.5324 54.0287 16.0927Z" fill="#68B044"/>
<path d="M44.8817 31.1753L51.393 33.895C51.393 35.5434 51.228 40.6534 52.2995 42.1369C63.1786 56.1479 61.3653 84.3348 50.0742 84.9942C32.9313 84.9942 26.3379 73.3732 26.3379 62.6588C26.3379 52.8513 38.0411 46.4225 45.0467 40.6532C46.9423 39.0875 46.6127 35.6262 44.8817 31.1753Z" fill="#F5F8DE"/>
<path d="M51.3926 33.8125L53.7826 35.0488C53.5352 36.6147 53.8651 40.0763 55.431 40.9006C62.3542 45.1863 68.7827 49.8016 71.3377 54.4994C80.4034 70.9007 64.9914 86.1479 51.5573 84.6645C58.8101 79.3073 60.9529 68.2632 58.2332 56.1479C57.1617 51.45 55.431 47.1644 52.3814 42.3016C51.0629 40.0763 51.5573 37.1093 51.3926 33.8125Z" fill="#4B0163"/>
<path d="M44.3866 29.6091L55.1834 34.0598C53.6997 38.8401 57.9854 42.2191 59.3866 42.9608C62.5185 44.6917 65.4854 46.5048 67.8757 48.6476C72.4086 52.7686 74.9636 58.5379 74.9636 64.5545C74.9636 70.5708 72.2438 76.4224 67.546 80.2962C63.1779 83.9225 57.0788 85.4884 51.2272 85.4884C47.6009 85.4884 44.3041 85.3234 40.7603 84.1699C32.6009 81.4499 26.5843 74.5268 26.0899 66.2027C25.5953 59.7739 27.0787 54.8289 32.1062 49.6367C34.6612 46.917 39.9359 43.7851 43.5625 41.3126C45.3756 40.1586 47.2712 36.697 43.645 30.186L44.3866 29.6091ZM45.2107 31.34C45.6231 31.9169 46.6119 34.3894 46.8591 35.131C47.3537 37.1916 47.1065 39.1695 46.6941 40.0763C44.4691 44.197 40.5128 45.351 37.7109 47.6586C37.1578 48.112 36.5998 48.5542 36.0452 48.9977L35.7432 49.2396C31.3707 52.7518 27.3186 56.4616 27.8206 66.2852C28.1503 71.8071 32.4359 78.6477 38.9469 81.7796C40.1868 82.3859 41.482 82.863 42.8167 83.2391C41.2236 82.5372 39.8661 81.6654 38.7822 80.4614C38.7822 80.3789 38.37 80.049 38.37 80.049C36.0625 77.4117 33.1778 72.9611 32.1887 68.7579C31.7766 67.1095 31.4469 65.791 31.9413 64.0601C33.6666 57.9101 37.2342 55.1043 40.9679 52.5374L41.2142 52.3683L41.3377 52.2841L41.7081 52.0318L42.0788 51.7795C42.9856 51.2029 44.1394 50.626 45.0457 49.8841C46.5425 48.9082 47.4226 46.2884 48.1727 43.6876L48.2474 43.4275C48.4207 42.8213 48.5878 42.2194 48.7547 41.6423C48.2603 44.1973 47.6832 48.8126 45.4579 50.5435C44.5515 51.2029 43.5625 51.8622 42.5734 52.5216L42.2103 52.7659C38.2997 55.398 34.5244 57.9914 32.7656 64.3073C32.3537 65.7083 32.6831 67.1917 33.0131 68.593C34.0019 72.6314 36.8041 76.9173 39.0294 79.4721C39.0294 79.506 39.0992 79.582 39.1815 79.6652L39.2535 79.7375C39.3503 79.8345 39.4415 79.9279 39.4415 79.9667C41.0354 81.8505 41.6739 82.5877 46.5078 83.8021C45.3237 83.3194 44.1893 82.7464 43.3978 82.192C39.4415 79.4721 37.4634 76.0932 37.134 71.0655C36.8865 67.1095 39.2766 63.071 43.9744 60.5985C47.1888 58.8676 48.1778 56.3126 49.1669 53.1807C48.425 56.8073 47.6009 58.9501 44.3041 60.9282C40.3481 63.1535 37.5459 67.6864 37.7931 70.7358C38.123 74.4446 40.6776 78.7305 43.6447 81.2855C44.8414 82.349 46.7354 83.0911 48.591 83.5544C48.1055 83.1716 47.5733 82.6236 47.1063 81.9446C46.5294 81.1205 46.1175 79.9667 45.7053 78.8952C45.2931 77.9061 44.881 76.7524 44.881 75.7633C44.881 73.3733 45.1284 70.4061 46.8591 68.4282C48.425 66.6148 48.9197 66.3676 49.5788 64.2248C49.0844 66.6148 48.7547 66.7798 47.2712 68.9226C45.3756 71.5601 45.2931 74.1974 45.5403 75.8458C45.7053 76.9173 46.1175 77.9061 46.4469 78.7302C46.8593 79.8018 47.3537 80.7908 48.0129 81.6974C48.59 82.3568 48.9197 82.7689 49.7438 83.1811C50.6503 81.4502 51.2272 77.9886 51.3097 76.093C51.3922 74.4446 51.4747 72.5492 51.2272 70.6535C50.8975 68.0986 50.1559 65.626 50.0734 63.6479C50.4856 65.4611 51.3922 68.0161 51.8866 70.4886C52.2988 72.4667 52.381 74.3623 52.2163 75.8458C52.0513 77.5764 51.9688 78.9777 51.7219 80.4611C51.495 81.595 50.9213 82.6598 50.0014 83.7822C52.0872 82.4523 53.2961 80.0921 53.8647 77.4117C54.6063 74.1149 54.6888 70.983 54.6888 69.3348C54.6888 68.1616 54.2764 66.422 53.8188 64.6857L53.7376 64.3793C53.6425 64.0225 53.5464 63.6671 53.4525 63.3182C53.0404 61.6698 51.4744 60.0214 51.0625 58.7854C50.3207 56.7248 50.6503 55.2411 50.5679 52.3566C50.8978 54.9941 50.8978 57.3017 51.6394 58.5379C52.2163 59.6095 53.2053 61.0929 53.7822 62.5764C54.936 65.2964 55.5129 68.2633 55.5954 69.6645C55.6778 72.0545 55.3482 75.7633 54.5241 78.7302C54.2174 79.7266 53.824 80.6516 53.3824 81.4609C54.3171 80.0201 55.0313 78.328 55.3482 76.8346C55.4015 76.5835 55.4549 76.3312 55.5068 76.0784L55.5844 75.699C56.5349 71.0162 57.1943 66.2153 56.5844 63.3182C56.4195 62.5764 56.1723 60.1039 55.1834 57.4666C53.7822 53.5929 51.7216 50.461 51.4744 49.7194C50.6877 47.6739 50.5016 42.6997 50.4148 39.7428L50.4131 39.6743C50.4381 40.4024 50.4873 41.1978 50.5548 42.0086L50.5766 42.265C50.5916 42.4363 50.6074 42.608 50.6239 42.7798L50.6491 43.0372C50.6535 43.0801 50.6576 43.1231 50.6622 43.1657L50.6889 43.4224C50.9528 45.8995 51.3541 48.242 51.7219 48.9776C51.9691 49.7194 54.1944 53.2632 55.7603 56.972C56.8316 59.3623 57.1613 61.6698 57.2438 62.3292C58.0679 69.2523 57.4087 72.137 55.5954 78.3185C55.3763 79.0766 55.0782 79.8003 54.7317 80.4728C55.7742 79.1354 56.5417 77.7006 56.8316 76.5051C58.5625 68.8402 59.2219 58.9501 56.7491 51.3676C55.4306 47.4116 52.2988 43.9501 51.7219 41.56C51.2272 39.3347 51.2272 37.0269 51.3919 34.06L52.2163 34.4719C51.8041 35.3785 52.0513 39.9941 52.7107 41.7247C53.535 44.0325 55.925 46.6698 57.4085 50.3785C57.7836 51.2441 58.1586 52.5335 58.4912 53.8724L58.5477 54.1024C58.5759 54.2173 58.6035 54.3328 58.6309 54.4481L58.6853 54.6785C59.2056 56.9055 59.586 59.0622 59.6338 59.4445C60.4581 66.3676 60.046 72.8786 57.9856 78.4008C57.0116 80.9572 54.9586 83.289 53.454 84.3669C57.4587 83.8264 62.9782 81.7796 66.3098 79.0599C70.5954 75.5159 72.9032 70.0764 72.9032 64.5543C72.9032 59.0323 70.7604 53.7576 66.557 50.0489C64.1669 47.906 60.2932 45.2686 57.8207 43.8676C55.3482 42.4664 52.2988 38.5926 53.2878 34.8838L45.2107 31.34Z" fill="url(#paint0_linear_388_3077)"/>
<defs>
<filter id="filter0_d_388_3077" x="0.0798948" y="0.488281" width="100.744" height="100.744" filterUnits="userSpaceOnUse" color-interpolation-filters="sRGB">
<feFlood flood-opacity="0" result="BackgroundImageFix"/>
<feColorMatrix in="SourceAlpha" type="matrix" values="0 0 0 0 0 0 0 0 0 0 0 0 0 0 0 0 0 0 127 0" result="hardAlpha"/>
<feOffset dy="2.92011"/>
<feGaussianBlur stdDeviation="1.46005"/>
<feComposite in2="hardAlpha" operator="out"/>
<feColorMatrix type="matrix" values="0 0 0 0 0 0 0 0 0 0 0 0 0 0 0 0 0 0 0.25 0"/>
<feBlend mode="normal" in2="BackgroundImageFix" result="effect1_dropShadow_388_3077"/>
<feBlend mode="normal" in="SourceGraphic" in2="effect1_dropShadow_388_3077" result="shape"/>
</filter>
<linearGradient id="paint0_linear_388_3077" x1="50.4818" y1="29.6091" x2="50.4818" y2="85.4884" gradientUnits="userSpaceOnUse">
<stop stop-color="#A31ED7"/>
<stop offset="0.943089" stop-color="#53046E"/>
</linearGradient>
</defs>
</svg>
