<svg width="131" height="131" viewBox="0 0 131 131" fill="none" xmlns="http://www.w3.org/2000/svg">
<g filter="url(#filter0_d_388_3129)">
<rect x="18" y="1.48828" width="94.9033" height="94.9036" rx="14.6005" fill="white"/>
</g>
<g filter="url(#filter1_dii_388_3129)">
<circle cx="65.5" cy="48.9883" r="32.5" fill="#E5ECF6"/>
</g>
<path d="M65.8888 60.5872C49.4602 51.48 50.8888 33.8014 50.8888 33.8014L51.0673 33.6228C56.0673 28.9799 73.6031 28.7656 80.1745 33.6228V33.8014C80.5912 40.1705 79.9959 51.48 66.0674 60.5872H65.8888Z" fill="#007AFF"/>
<path fill-rule="evenodd" clip-rule="evenodd" d="M65.5 60.3669C65.6286 60.4405 65.7583 60.5135 65.8891 60.5861H66.0676C79.9962 51.4789 80.5914 40.1694 80.1748 33.8003V33.6217C76.9769 31.258 71.1826 30.0954 65.5 30.0596V60.3669Z" fill="#007AFF"/>
<path d="M61.394 41.3098C60.4924 40.859 59.902 41.4158 59.6052 41.9632C59.4705 42.2118 59.5424 42.5105 59.7282 42.7236L65.5011 49.3455L73.894 37.2026L65.3225 45.0598C64.4892 44.0479 62.5368 41.8812 61.394 41.3098Z" fill="white"/>
<path d="M65.8888 60.5872C49.4602 51.48 50.8888 33.8014 50.8888 33.8014L51.0673 33.6228C56.0673 28.9799 73.6031 28.7656 80.1745 33.6228V33.8014C80.5912 40.1705 79.9959 51.48 66.0674 60.5872H65.8888Z" fill="#007AFF"/>
<path fill-rule="evenodd" clip-rule="evenodd" d="M65.5 60.3669C65.6286 60.4405 65.7583 60.5135 65.8891 60.5861H66.0676C79.9962 51.4789 80.5914 40.1694 80.1748 33.8003V33.6217C76.9769 31.258 71.1826 30.0954 65.5 30.0596V60.3669Z" fill="#007AFF"/>
<path d="M61.394 41.3098C60.4924 40.859 59.902 41.4158 59.6052 41.9632C59.4705 42.2118 59.5424 42.5105 59.7282 42.7236L65.5011 49.3455L73.894 37.2026L65.3225 45.0598C64.4892 44.0479 62.5368 41.8812 61.394 41.3098Z" fill="white"/>
<path d="M56.213 63.9683L55.0988 67.3643H54.2013L55.7234 63.2678H56.2946L56.213 63.9683ZM57.1386 67.3643L56.0217 63.9683L55.9316 63.2678H56.5084L58.039 67.3643H57.1386ZM57.088 65.8393V66.5005H54.9244V65.8393H57.088ZM60.166 66.7003V63.0427H60.9819V67.3643H60.2476L60.166 66.7003ZM58.2415 65.8787V65.8196C58.2415 65.5871 58.2678 65.376 58.3203 65.1866C58.3728 64.9953 58.4497 64.8312 58.551 64.6942C58.6523 64.5573 58.7771 64.4513 58.9252 64.3763C59.0734 64.3013 59.2422 64.2638 59.4317 64.2638C59.6099 64.2638 59.7655 64.3013 59.8987 64.3763C60.0338 64.4513 60.1482 64.5582 60.242 64.697C60.3376 64.834 60.4145 64.9962 60.4727 65.1838C60.5308 65.3695 60.573 65.573 60.5993 65.7943V65.9237C60.573 66.1357 60.5308 66.3326 60.4727 66.5146C60.4145 66.6965 60.3376 66.8559 60.242 66.9929C60.1482 67.1279 60.0338 67.233 59.8987 67.308C59.7637 67.383 59.6061 67.4205 59.426 67.4205C59.2366 67.4205 59.0678 67.3821 58.9196 67.3052C58.7733 67.2283 58.6495 67.1204 58.5482 66.9816C58.4488 66.8428 58.3728 66.6796 58.3203 66.4921C58.2678 66.3045 58.2415 66.1001 58.2415 65.8787ZM59.0518 65.8196V65.8787C59.0518 66.0044 59.0612 66.1216 59.08 66.2304C59.1006 66.3392 59.1334 66.4358 59.1784 66.5202C59.2253 66.6027 59.2854 66.6674 59.3585 66.7143C59.4335 66.7594 59.5245 66.7819 59.6314 66.7819C59.7702 66.7819 59.8846 66.7509 59.9747 66.689C60.0647 66.6252 60.1332 66.538 60.1801 66.4274C60.2288 66.3167 60.257 66.1891 60.2645 66.0447V65.6761C60.2588 65.558 60.242 65.452 60.2138 65.3582C60.1876 65.2626 60.1482 65.181 60.0957 65.1134C60.045 65.0459 59.9812 64.9934 59.9043 64.9559C59.8293 64.9184 59.7402 64.8996 59.637 64.8996C59.532 64.8996 59.442 64.924 59.367 64.9728C59.2919 65.0197 59.231 65.0844 59.1841 65.1669C59.1391 65.2494 59.1053 65.347 59.0828 65.4595C59.0622 65.5702 59.0518 65.6902 59.0518 65.8196ZM63.2693 65.5664H62.217L62.2114 64.9868H63.0949C63.2505 64.9868 63.3781 64.9671 63.4775 64.9278C63.5769 64.8865 63.651 64.8274 63.6998 64.7505C63.7504 64.6717 63.7757 64.5761 63.7757 64.4635C63.7757 64.336 63.7513 64.2328 63.7026 64.154C63.6557 64.0753 63.5816 64.018 63.4803 63.9824C63.3809 63.9468 63.2524 63.929 63.0949 63.929H62.5097V67.3643H61.6656V63.2678H63.0949C63.3331 63.2678 63.546 63.2903 63.7335 63.3353C63.923 63.3803 64.0833 63.4488 64.2146 63.5407C64.3459 63.6326 64.4463 63.7489 64.5157 63.8896C64.5851 64.0284 64.6198 64.1934 64.6198 64.3847C64.6198 64.5536 64.5813 64.7092 64.5044 64.8518C64.4294 64.9943 64.3103 65.1106 64.1471 65.2007C63.9858 65.2907 63.7748 65.3404 63.5141 65.3498L63.2693 65.5664ZM63.2327 67.3643H61.9863L62.3155 66.7059H63.2327C63.3809 66.7059 63.5019 66.6824 63.5957 66.6356C63.6895 66.5868 63.7589 66.5211 63.8039 66.4386C63.8489 66.3561 63.8714 66.2614 63.8714 66.1544C63.8714 66.0344 63.8508 65.9303 63.8095 65.8421C63.7701 65.754 63.7063 65.6865 63.6182 65.6396C63.53 65.5908 63.4137 65.5664 63.2693 65.5664H62.4562L62.4618 64.9868H63.4747L63.6688 65.2147C63.9183 65.211 64.119 65.2551 64.2709 65.347C64.4247 65.437 64.5363 65.5542 64.6057 65.6987C64.677 65.8431 64.7126 65.9978 64.7126 66.1629C64.7126 66.4255 64.6554 66.6468 64.541 66.8269C64.4266 67.0051 64.2587 67.1392 64.0374 67.2292C63.8179 67.3192 63.5497 67.3643 63.2327 67.3643ZM66.1503 63.0427V67.3643H65.3372V63.0427H66.1503ZM66.6905 65.8731V65.814C66.6905 65.5908 66.7224 65.3854 66.7862 65.1978C66.85 65.0084 66.9428 64.8443 67.0647 64.7055C67.1867 64.5667 67.3367 64.4588 67.5149 64.3819C67.6931 64.3032 67.8975 64.2638 68.1282 64.2638C68.359 64.2638 68.5643 64.3032 68.7444 64.3819C68.9245 64.4588 69.0755 64.5667 69.1974 64.7055C69.3212 64.8443 69.415 65.0084 69.4787 65.1978C69.5425 65.3854 69.5744 65.5908 69.5744 65.814V65.8731C69.5744 66.0944 69.5425 66.2998 69.4787 66.4893C69.415 66.6768 69.3212 66.8409 69.1974 66.9816C69.0755 67.1204 68.9254 67.2283 68.7472 67.3052C68.569 67.3821 68.3646 67.4205 68.1339 67.4205C67.9032 67.4205 67.6978 67.3821 67.5177 67.3052C67.3395 67.2283 67.1885 67.1204 67.0647 66.9816C66.9428 66.8409 66.85 66.6768 66.7862 66.4893C66.7224 66.2998 66.6905 66.0944 66.6905 65.8731ZM67.5008 65.814V65.8731C67.5008 66.0006 67.5121 66.1197 67.5346 66.2304C67.5571 66.3411 67.5927 66.4386 67.6415 66.523C67.6921 66.6055 67.7578 66.6703 67.8385 66.7171C67.9191 66.764 68.0176 66.7875 68.1339 66.7875C68.2464 66.7875 68.343 66.764 68.4237 66.7171C68.5043 66.6703 68.569 66.6055 68.6178 66.523C68.6666 66.4386 68.7022 66.3411 68.7247 66.2304C68.7491 66.1197 68.7613 66.0006 68.7613 65.8731V65.814C68.7613 65.6902 68.7491 65.5739 68.7247 65.4651C68.7022 65.3545 68.6656 65.2569 68.615 65.1725C68.5662 65.0862 68.5015 65.0187 68.4208 64.97C68.3402 64.9212 68.2427 64.8968 68.1282 64.8968C68.0138 64.8968 67.9163 64.9212 67.8356 64.97C67.7569 65.0187 67.6921 65.0862 67.6415 65.1725C67.5927 65.2569 67.5571 65.3545 67.5346 65.4651C67.5121 65.5739 67.5008 65.6902 67.5008 65.814ZM71.33 66.7875C71.4294 66.7875 71.5176 66.7687 71.5945 66.7312C71.6714 66.6918 71.7314 66.6374 71.7746 66.568C71.8196 66.4968 71.843 66.4133 71.8449 66.3176H72.6074C72.6055 66.5315 72.5483 66.7218 72.4357 66.8888C72.3232 67.0538 72.1722 67.1842 71.9828 67.2799C71.7933 67.3736 71.5814 67.4205 71.3469 67.4205C71.1106 67.4205 70.9042 67.3811 70.7279 67.3024C70.5535 67.2236 70.4081 67.1148 70.2918 66.976C70.1755 66.8353 70.0883 66.6721 70.0302 66.4864C69.972 66.2989 69.943 66.0982 69.943 65.8843V65.8028C69.943 65.5871 69.972 65.3864 70.0302 65.2007C70.0883 65.0131 70.1755 64.8499 70.2918 64.7111C70.4081 64.5704 70.5535 64.4607 70.7279 64.3819C70.9024 64.3032 71.1068 64.2638 71.3413 64.2638C71.5907 64.2638 71.8093 64.3116 71.9968 64.4073C72.1863 64.5029 72.3345 64.6398 72.4414 64.818C72.5502 64.9943 72.6055 65.2035 72.6074 65.4454H71.8449C71.843 65.3442 71.8215 65.2522 71.7802 65.1697C71.7408 65.0872 71.6827 65.0215 71.6057 64.9728C71.5307 64.9221 71.4379 64.8968 71.3272 64.8968C71.209 64.8968 71.1124 64.9221 71.0374 64.9728C70.9624 65.0215 70.9042 65.0891 70.863 65.1753C70.8217 65.2597 70.7926 65.3563 70.7758 65.4651C70.7608 65.572 70.7533 65.6846 70.7533 65.8028V65.8843C70.7533 66.0025 70.7608 66.116 70.7758 66.2248C70.7908 66.3336 70.8189 66.4302 70.8602 66.5146C70.9033 66.599 70.9624 66.6656 71.0374 66.7143C71.1124 66.7631 71.21 66.7875 71.33 66.7875ZM73.8875 63.0399V67.3643H73.0772V63.0399H73.8875ZM75.8063 64.32L74.484 65.8281L73.775 66.5455L73.4796 65.9603L74.0423 65.2457L74.8329 64.32H75.8063ZM74.9651 67.3643L74.0648 65.9575L74.6247 65.4679L75.8992 67.3643H74.9651ZM78.3357 63.2678L79.1066 64.697L79.8775 63.2678H80.8425L79.6524 65.2991L80.8735 67.3643H79.9L79.1066 65.9069L78.3132 67.3643H77.3341L78.5579 65.2991L77.365 63.2678H78.3357Z" fill="#007AFF"/>
<defs>
<filter id="filter0_d_388_3129" x="15.0799" y="1.48828" width="100.744" height="100.744" filterUnits="userSpaceOnUse" color-interpolation-filters="sRGB">
<feFlood flood-opacity="0" result="BackgroundImageFix"/>
<feColorMatrix in="SourceAlpha" type="matrix" values="0 0 0 0 0 0 0 0 0 0 0 0 0 0 0 0 0 0 127 0" result="hardAlpha"/>
<feOffset dy="2.92011"/>
<feGaussianBlur stdDeviation="1.46005"/>
<feComposite in2="hardAlpha" operator="out"/>
<feColorMatrix type="matrix" values="0 0 0 0 0 0 0 0 0 0 0 0 0 0 0 0 0 0 0.25 0"/>
<feBlend mode="normal" in2="BackgroundImageFix" result="effect1_dropShadow_388_3129"/>
<feBlend mode="normal" in="SourceGraphic" in2="effect1_dropShadow_388_3129" result="shape"/>
</filter>
<filter id="filter1_dii_388_3129" x="0.0738182" y="0.0251904" width="130.852" height="130.852" filterUnits="userSpaceOnUse" color-interpolation-filters="sRGB">
<feFlood flood-opacity="0" result="BackgroundImageFix"/>
<feColorMatrix in="SourceAlpha" type="matrix" values="0 0 0 0 0 0 0 0 0 0 0 0 0 0 0 0 0 0 127 0" result="hardAlpha"/>
<feOffset dy="16.4631"/>
<feGaussianBlur stdDeviation="16.4631"/>
<feColorMatrix type="matrix" values="0 0 0 0 0.179608 0 0 0 0 0.185098 0 0 0 0 0.192941 0 0 0 0.114 0"/>
<feBlend mode="normal" in2="BackgroundImageFix" result="effect1_dropShadow_388_3129"/>
<feBlend mode="normal" in="SourceGraphic" in2="effect1_dropShadow_388_3129" result="shape"/>
<feColorMatrix in="SourceAlpha" type="matrix" values="0 0 0 0 0 0 0 0 0 0 0 0 0 0 0 0 0 0 127 0" result="hardAlpha"/>
<feOffset dy="3.8048"/>
<feGaussianBlur stdDeviation="1.9024"/>
<feComposite in2="hardAlpha" operator="arithmetic" k2="-1" k3="1"/>
<feColorMatrix type="matrix" values="0 0 0 0 0.927675 0 0 0 0 0.956031 0 0 0 0 0.996541 0 0 0 1 0"/>
<feBlend mode="normal" in2="shape" result="effect2_innerShadow_388_3129"/>
<feColorMatrix in="SourceAlpha" type="matrix" values="0 0 0 0 0 0 0 0 0 0 0 0 0 0 0 0 0 0 127 0" result="hardAlpha"/>
<feOffset dy="-3.8048"/>
<feGaussianBlur stdDeviation="1.9024"/>
<feComposite in2="hardAlpha" operator="arithmetic" k2="-1" k3="1"/>
<feColorMatrix type="matrix" values="0 0 0 0 0.860995 0 0 0 0 0.887314 0 0 0 0 0.924912 0 0 0 1 0"/>
<feBlend mode="normal" in2="effect2_innerShadow_388_3129" result="effect3_innerShadow_388_3129"/>
</filter>
</defs>
</svg>
