<svg width="101" height="102" viewBox="0 0 101 102" fill="none" xmlns="http://www.w3.org/2000/svg">
<g filter="url(#filter0_d_388_3060)">
<rect x="3" y="0.488281" width="94.9033" height="94.9036" rx="14.6005" fill="white"/>
</g>
<path fill-rule="evenodd" clip-rule="evenodd" d="M32.9505 70.8249C36.2233 70.8249 38.901 68.1451 38.901 64.8744V32.7995C38.901 29.5247 36.2233 26.8469 32.9505 26.8469C29.6757 26.8469 27 29.5267 27 32.7995V64.8744C27 68.1472 29.6757 70.8249 32.9505 70.8249Z" fill="#ED1B25"/>
<path fill-rule="evenodd" clip-rule="evenodd" d="M44.8529 80.4884C48.1277 80.4884 50.8054 77.8127 50.8054 74.5379V24.5825C50.8054 21.3076 48.1277 18.6299 44.8529 18.6299C41.5801 18.6299 38.9023 21.3097 38.9023 24.5825V74.5379C38.9023 77.8127 41.5801 80.4884 44.8529 80.4884Z" fill="#FABA1C"/>
<path fill-rule="evenodd" clip-rule="evenodd" d="M56.7591 76.3819C60.034 76.3819 62.7096 73.7041 62.7096 70.4293V21.4409C62.7096 18.1639 60.0319 15.4883 56.7591 15.4883C53.4843 15.4883 50.8086 18.1639 50.8086 21.4409V70.4293C50.8086 73.7041 53.4863 76.3819 56.7591 76.3819Z" fill="#068ED4"/>
<path fill-rule="evenodd" clip-rule="evenodd" d="M68.6616 73.2413C71.9364 73.2413 74.6121 70.5615 74.6121 67.2887V28.9327C74.6121 25.6578 71.9364 22.9822 68.6616 22.9822C65.3867 22.9822 62.709 25.6578 62.709 28.9327V67.2887C62.709 70.5636 65.3867 73.2413 68.6616 73.2413Z" fill="#009E4F"/>
<path fill-rule="evenodd" clip-rule="evenodd" d="M38.7504 30.5423C20.8472 42.5611 29.4403 70.4252 50.8209 70.4252C72.2014 70.4252 80.8048 42.5818 62.8892 30.5423C55.6515 25.6765 45.9902 25.6807 38.7504 30.5423Z" fill="#FEFEFE"/>
<path fill-rule="evenodd" clip-rule="evenodd" d="M41.6985 34.9648C28.1652 44.0497 34.6612 65.11 50.8247 65.11C66.9882 65.11 73.4883 44.0641 59.9488 34.9648C54.4756 31.2871 47.1718 31.2891 41.6985 34.9648Z" fill="#D5D5D7"/>
<path fill-rule="evenodd" clip-rule="evenodd" d="M43.5412 37.7319C32.7435 44.982 37.9254 61.7839 50.8203 61.7839C63.7151 61.7839 68.9032 44.9923 58.0993 37.7319C53.7315 34.8 47.907 34.8 43.5412 37.7319Z" fill="#5F5F5F"/>
<path fill-rule="evenodd" clip-rule="evenodd" d="M44.3986 39.0173C34.8716 45.412 39.444 60.2408 50.8202 60.2408C62.1964 60.2408 66.775 45.4244 57.2439 39.0173C53.3905 36.4304 48.2499 36.4304 44.3986 39.0173Z" fill="#434443"/>
<path fill-rule="evenodd" clip-rule="evenodd" d="M47.2587 43.3106C41.9756 46.8603 44.5107 55.0835 50.8228 55.0835C57.1349 55.0835 59.6722 46.8623 54.3849 43.3106C52.2485 41.8726 49.3972 41.8767 47.2587 43.3106Z" fill="#22201E"/>
<path fill-rule="evenodd" clip-rule="evenodd" d="M46.7657 46.4961C44.2677 44.8184 45.4661 40.9299 48.4496 40.9299C51.4331 40.9299 52.6315 44.8143 50.1335 46.4961C49.1232 47.1738 47.776 47.1718 46.7657 46.4961Z" fill="#BABCBE"/>
<path fill-rule="evenodd" clip-rule="evenodd" d="M53.6994 55.0107C52.4716 54.1839 53.0607 52.2698 54.5283 52.2698C55.996 52.2698 56.5871 54.1818 55.3572 55.0107C54.8611 55.3456 54.1955 55.3456 53.6994 55.0107Z" fill="#FEFEFE"/>
<defs>
<filter id="filter0_d_388_3060" x="0.0798948" y="0.488281" width="100.744" height="100.744" filterUnits="userSpaceOnUse" color-interpolation-filters="sRGB">
<feFlood flood-opacity="0" result="BackgroundImageFix"/>
<feColorMatrix in="SourceAlpha" type="matrix" values="0 0 0 0 0 0 0 0 0 0 0 0 0 0 0 0 0 0 127 0" result="hardAlpha"/>
<feOffset dy="2.92011"/>
<feGaussianBlur stdDeviation="1.46005"/>
<feComposite in2="hardAlpha" operator="out"/>
<feColorMatrix type="matrix" values="0 0 0 0 0 0 0 0 0 0 0 0 0 0 0 0 0 0 0.25 0"/>
<feBlend mode="normal" in2="BackgroundImageFix" result="effect1_dropShadow_388_3060"/>
<feBlend mode="normal" in="SourceGraphic" in2="effect1_dropShadow_388_3060" result="shape"/>
</filter>
</defs>
</svg>
