<svg width="88" height="22" viewBox="0 0 88 22" fill="none" xmlns="http://www.w3.org/2000/svg">
<path d="M34.7285 12.8856L39.5844 18.8571H35.75L31.4285 13.3729V18.8571H28.2856V3.14291H31.4285V12.3829L35.42 7.85709H39.4271L34.7285 12.8856ZM22.1571 7.54291C21.469 7.55325 20.7936 7.7302 20.1888 8.05859C19.584 8.38699 19.0678 8.85706 18.6844 9.42855V7.85709H15.7144V18.8571H18.8571V13.7185C18.8158 13.3456 18.8518 12.9681 18.9627 12.6096C19.0737 12.2512 19.2572 11.9194 19.5019 11.6349C19.7465 11.3504 20.0472 11.1193 20.385 10.956C20.7229 10.7927 21.0907 10.7007 21.4656 10.6856C23.2885 10.6856 23.5715 12.4771 23.5715 13.7185V18.8571H26.7144V13.0271C26.7144 9.57 25.5671 7.54291 22.22 7.54291H22.1571ZM50.2856 13.6085C50.2977 13.839 50.2977 14.0695 50.2856 14.3H42.0356V14.41C42.1696 15.0653 42.5326 15.6514 43.0597 16.0632C43.5867 16.4751 44.2432 16.6856 44.9115 16.6571C45.4416 16.6801 45.9709 16.596 46.4677 16.4097C46.9645 16.2234 47.4186 15.9388 47.8029 15.5729L49.8929 17.1444C49.2305 17.8204 48.4338 18.35 47.5541 18.6992C46.6744 19.0483 45.7313 19.2092 44.7856 19.1715C44.0025 19.2209 43.2178 19.1017 42.4847 18.822C41.7515 18.5422 41.0869 18.1084 40.5358 17.5498C39.9847 16.9912 39.5598 16.3209 39.2899 15.584C39.0201 14.8472 38.9115 14.061 38.9715 13.2785C38.9553 12.5061 39.0985 11.7387 39.392 11.0241C39.6855 10.3094 40.123 9.66287 40.6774 9.12476C41.2317 8.58664 41.891 8.16847 42.614 7.89632C43.3371 7.62417 44.1084 7.50386 44.88 7.54291C47.8344 7.54291 50.2856 9.63291 50.2856 13.6085ZM47.3629 12.2571C47.3513 11.9458 47.2765 11.6402 47.143 11.3588C47.0095 11.0774 46.8201 10.8261 46.5863 10.6203C46.3525 10.4145 46.0793 10.2584 45.7833 10.1616C45.4872 10.0647 45.1746 10.0292 44.8644 10.0571C43.4825 9.90773 42.2311 10.8811 42.0356 12.2571H47.3629ZM3.14291 3.14291H0V18.8571H9.42855V15.7145H3.14291V3.14291ZM59.7144 3.14291H62.8571V18.8571H59.8871V17.7571C59.5099 18.2217 59.0293 18.5916 58.4836 18.8372C57.9379 19.0828 57.3422 19.1973 56.7444 19.1715C56.0139 19.1527 55.295 18.9848 54.6319 18.678C53.9687 18.3712 53.3753 17.932 52.8882 17.3874C52.401 16.8428 52.0304 16.2044 51.799 15.5113C51.5677 14.8182 51.4805 14.0851 51.5429 13.3571C51.4687 12.6281 51.5471 11.8916 51.773 11.1945C51.999 10.4973 52.3676 9.85492 52.8553 9.30803C53.3431 8.76114 53.9394 8.32177 54.6062 8.01788C55.273 7.71399 55.9958 7.55224 56.7285 7.54291C57.2743 7.51896 57.8194 7.60388 58.332 7.79274C58.8447 7.98159 59.3146 8.2706 59.7144 8.64291V3.14291ZM59.95 13.3571C59.9994 12.9942 59.9705 12.625 59.8651 12.2743C59.7597 11.9235 59.5803 11.5995 59.339 11.324C59.0978 11.0485 58.8002 10.8279 58.4665 10.6771C58.1328 10.5264 57.7706 10.4489 57.4044 10.45C55.901 10.5591 54.7618 11.852 54.8429 13.3571C54.7618 14.8622 55.901 16.1552 57.4044 16.2644C57.7706 16.2655 58.1328 16.188 58.4665 16.0372C58.8003 15.8864 59.0978 15.6658 59.3391 15.3903C59.5804 15.1148 59.7597 14.7907 59.8651 14.44C59.9705 14.0892 59.9994 13.72 59.95 13.3571ZM12.5715 2.82855C12.066 2.83567 11.5822 3.03432 11.2176 3.38438C10.853 3.73445 10.6348 4.20983 10.6071 4.71453C10.6071 5.79923 11.4866 6.67872 12.5715 6.67872C13.6563 6.67872 14.5355 5.79906 14.5355 4.71453C14.5077 4.20989 14.2896 3.73457 13.925 3.38455C13.5604 3.03453 13.0768 2.83571 12.5715 2.82855ZM11 18.8571H14.1429V7.85709H11V18.8571ZM88 1.57145V20.4285C88 20.8453 87.8344 21.245 87.5397 21.5397C87.245 21.8344 86.8453 22 86.4285 22H67.5715C67.1547 22 66.755 21.8344 66.4603 21.5397C66.1656 21.245 66 20.8453 66 20.4285V1.57145C66 1.15468 66.1656 0.754973 66.4603 0.460268C66.755 0.165563 67.1547 0 67.5715 0L86.4285 0C86.8453 0 87.245 0.165563 87.5397 0.460268C87.8344 0.754973 88 1.15468 88 1.57145ZM72.2856 7.85709H69.1429V18.8571H72.2856V7.85709ZM72.6785 4.71436C72.6785 3.62948 71.7991 2.75 70.7144 2.75C69.6297 2.75 68.75 3.62948 68.75 4.71436C68.75 5.79906 69.6295 6.67855 70.7144 6.67855C71.7991 6.67855 72.6785 5.79906 72.6785 4.71436ZM84.8571 13.0271C84.8571 9.57 83.71 7.54291 80.3629 7.54291C79.6641 7.54301 78.976 7.71507 78.3594 8.04392C77.7428 8.37276 77.2165 8.84828 76.8271 9.42855V7.85709H73.8571V18.8571H77V13.7185C76.9588 13.3456 76.9947 12.9681 77.1056 12.6096C77.2166 12.2512 77.4001 11.9194 77.6448 11.6349C77.8895 11.3504 78.1901 11.1193 78.5279 10.956C78.8658 10.7927 79.2336 10.7007 79.6086 10.6856C81.4315 10.6856 81.7144 12.4771 81.7144 13.7185V18.8571H84.8571V13.0271Z" fill="#0A66C2"/>
</svg>
