<svg width="36" height="36" viewBox="0 0 36 36" fill="none" xmlns="http://www.w3.org/2000/svg">
<rect width="35.68" height="35.68" rx="17.84" fill="#0A66C2"/>
<g clip-path="url(#clip0_388_3955)">
<path d="M7.43359 10.2098C7.43359 9.54009 7.66798 8.98761 8.13675 8.55234C8.60551 8.11705 9.21492 7.89941 9.96495 7.89941C10.7016 7.89941 11.2976 8.11369 11.753 8.5423C12.2217 8.98428 12.4561 9.56018 12.4561 10.27C12.4561 10.9129 12.2284 11.4486 11.7731 11.8773C11.3043 12.3192 10.6882 12.5402 9.92477 12.5402H9.90468C9.16803 12.5402 8.57204 12.3192 8.11666 11.8773C7.66127 11.4353 7.43359 10.8794 7.43359 10.2098ZM7.69476 27.7886V14.3684H12.1548V27.7886H7.69476ZM14.6258 27.7886H19.0858V20.295C19.0858 19.8262 19.1394 19.4646 19.2466 19.2101C19.4341 18.7548 19.7187 18.3697 20.1004 18.055C20.4821 17.7402 20.9609 17.5828 21.5368 17.5828C23.0369 17.5828 23.7869 18.594 23.7869 20.6164V27.7886H28.2469V20.0941C28.2469 18.1119 27.7782 16.6085 26.8406 15.5839C25.9031 14.5593 24.6642 14.047 23.124 14.047C21.3962 14.047 20.0502 14.7903 19.0858 16.277V16.3172H19.0658L19.0858 16.277V14.3684H14.6258C14.6526 14.797 14.666 16.1296 14.666 18.3664C14.666 20.603 14.6526 23.7438 14.6258 27.7886Z" fill="white"/>
</g>
<defs>
<clipPath id="clip0_388_3955">
<rect x="7.43359" y="7.43359" width="20.8133" height="20.8133" fill="white"/>
</clipPath>
</defs>
</svg>
