<svg width="15" height="20" viewBox="0 0 15 20" fill="none" xmlns="http://www.w3.org/2000/svg">
<path fill-rule="evenodd" clip-rule="evenodd" d="M0 7.28044C0 2.72331 3.5633 0 7.00788 0C10.4525 0 14.0158 2.72331 14.0158 7.28044C14.0158 12.1134 7.57387 18.8615 7.29933 19.1463C7.22224 19.2268 7.11713 19.2718 7.00788 19.2718C6.89864 19.2718 6.79353 19.2268 6.71644 19.1463C6.44189 18.8615 0 12.1134 0 7.28044ZM4.53711 7.2805C4.53711 8.69762 5.64642 9.85007 7.01048 9.85007C8.37454 9.85007 9.48385 8.69762 9.48385 7.2805C9.48385 5.86339 8.37454 4.71094 7.01048 4.71094C5.64642 4.71094 4.53711 5.86339 4.53711 7.2805Z" fill="#4285F4"/>
</svg>
