<svg width="21" height="18" viewBox="0 0 21 18" fill="none" xmlns="http://www.w3.org/2000/svg">
<path d="M17.9577 0.342285H2.18996C0.98048 0.342285 7.5394e-09 1.32633 7.5394e-09 2.5402V4.29854C-2.96593e-05 4.4594 0.087495 4.60744 0.228194 4.68449L9.86403 9.95949C9.9948 10.0311 10.1529 10.0311 10.2836 9.95949L19.9195 4.68449C20.0602 4.60744 20.1477 4.4594 20.1477 4.29854V2.5402C20.1477 1.32633 19.1672 0.342285 17.9577 0.342285Z" fill="#4285F4"/>
<path d="M10.7032 11.0599C10.3114 11.2705 9.83802 11.2705 9.44619 11.0599L0.0100738 5.98389L0 5.99037V15.1064C0 16.2995 0.98048 17.2666 2.18996 17.2666H17.9577C19.1672 17.2666 20.1477 16.2995 20.1477 15.1064V5.99037L20.1376 5.98432L10.7032 11.0599Z" fill="#4285F4"/>
</svg>
