<svg width="21" height="21" viewBox="0 0 21 21" fill="none" xmlns="http://www.w3.org/2000/svg">
<path d="M13.452 12.9703L11.8099 15.0231C9.26649 13.5286 7.14697 11.4093 5.6522 8.86609L7.7046 7.22404C8.19954 6.82817 8.3651 6.14825 8.10757 5.56917L6.23651 1.35643C5.95928 0.73226 5.27096 0.400509 4.60998 0.572496L1.04874 1.49563C0.360738 1.67508 -0.0841525 2.34092 0.0133786 3.04519C1.2981 12.1896 8.48532 19.3768 17.63 20.6618C18.3343 20.7591 19 20.3143 19.1796 19.6264L20.1028 16.0644C20.2741 15.4036 19.9425 14.7158 19.3188 14.4384L15.1069 12.5696C14.5283 12.3119 13.8486 12.4765 13.452 12.9703Z" fill="#4285F4"/>
</svg>
