<svg width="65" height="58" viewBox="0 0 65 58" fill="none" xmlns="http://www.w3.org/2000/svg">
<path d="M13.34 23.345C14.1133 25.1092 14.5 26.9942 14.5 29C14.5 26.9942 14.8746 25.1092 15.6238 23.345C16.3971 21.5808 17.4363 20.0463 18.7413 18.7413C20.0463 17.4363 21.5808 16.4092 23.345 15.66C25.1092 14.8867 26.9942 14.5 29 14.5C26.9942 14.5 25.1092 14.1254 23.345 13.3763C21.628 12.6359 20.0661 11.5783 18.7413 10.2587C17.4217 8.93393 16.3641 7.37202 15.6238 5.655C14.8746 3.89083 14.5 2.00583 14.5 0C14.5 2.00583 14.1133 3.89083 13.34 5.655C12.5908 7.41917 11.5638 8.95375 10.2587 10.2587C8.93393 11.5783 7.37202 12.6359 5.655 13.3763C3.89083 14.1254 2.00583 14.5 0 14.5C2.00583 14.5 3.89083 14.8867 5.655 15.66C7.41917 16.4092 8.95375 17.4363 10.2587 18.7413C11.5638 20.0463 12.5908 21.5808 13.34 23.345Z" fill="#FFB600"/>
<path d="M41.78 49.615C42.9267 52.2308 43.5 55.0258 43.5 58C43.5 55.0258 44.0554 52.2308 45.1663 49.615C46.3129 46.9992 47.8538 44.7237 49.7887 42.7887C51.7237 40.8538 53.9992 39.3308 56.615 38.22C59.2308 37.0733 62.0258 36.5 65 36.5C62.0258 36.5 59.2308 35.9446 56.615 34.8337C54.0691 33.736 51.7531 32.1678 49.7887 30.2112C47.8322 28.2469 46.264 25.9309 45.1663 23.385C44.0554 20.7692 43.5 17.9742 43.5 15C43.5 17.9742 42.9267 20.7692 41.78 23.385C40.6692 26.0008 39.1462 28.2762 37.2112 30.2112C35.2469 32.1678 32.9309 33.736 30.385 34.8337C27.7692 35.9446 24.9742 36.5 22 36.5C24.9742 36.5 27.7692 37.0733 30.385 38.22C33.0008 39.3308 35.2762 40.8538 37.2112 42.7887C39.1462 44.7237 40.6692 46.9992 41.78 49.615Z" fill="#EA4335"/>
</svg>
