<svg width="36" height="36" viewBox="0 0 36 36" fill="none" xmlns="http://www.w3.org/2000/svg">
<g clip-path="url(#clip0_388_3957)">
<path d="M31.5925 10.6757C31.6062 10.9897 31.6062 11.2894 31.6062 11.6034C31.62 21.1229 24.626 32.1124 11.8359 32.1124C8.06352 32.1124 4.36002 30.9849 1.17969 28.8726C1.73039 28.944 2.2811 28.9725 2.83181 28.9725C5.95707 28.9725 8.99972 27.8878 11.4641 25.8755C8.49032 25.8184 5.87446 23.806 4.9658 20.866C6.01214 21.0801 7.08602 21.0373 8.10482 20.7375C4.86942 20.081 2.54269 17.1267 2.52892 13.6871C2.52892 13.6586 2.52892 13.6301 2.52892 13.6015C3.49266 14.1581 4.5803 14.4721 5.68172 14.5007C2.63906 12.3884 1.68909 8.17814 3.53396 4.8813C7.07225 9.39126 12.2764 12.1172 17.8661 12.4169C17.3016 9.91933 18.0726 7.29327 19.8762 5.52354C22.671 2.79758 27.0767 2.9403 29.7201 5.83752C31.2758 5.52354 32.7765 4.92411 34.1395 4.08206C33.6163 5.75189 32.5287 7.16482 31.0831 8.06396C32.4598 7.8927 33.8091 7.50735 35.0757 6.93647C34.1395 8.39222 32.9555 9.64816 31.5925 10.6757Z" fill="#1D9BF0"/>
</g>
<defs>
<clipPath id="clip0_388_3957">
<rect x="0.288086" width="35.68" height="35.68" rx="8.92" fill="white"/>
</clipPath>
</defs>
</svg>
