<svg width="85" height="78" viewBox="0 0 85 78" fill="none" xmlns="http://www.w3.org/2000/svg">
<g filter="url(#filter0_d_388_3296)">
<mask id="mask0_388_3296" style="mask-type:alpha" maskUnits="userSpaceOnUse" x="13" y="9" width="48" height="54">
<path d="M36.5203 59.1433C36.9378 59.3593 37.4053 59.3621 37.8226 59.1512C41.2649 57.411 57.1885 48.682 57.1828 36.1225L57.1757 20.8107C57.1754 20.1416 56.7527 19.5429 56.1211 19.3171L37.6737 12.7193C37.3347 12.5981 36.9653 12.5958 36.6265 12.713L18.1851 19.0872C17.5537 19.3054 17.1315 19.899 17.1318 20.568L17.1388 35.8799C17.1446 48.4394 33.0764 57.3614 36.5203 59.1433Z" fill="white" stroke="black" stroke-width="6.78294" stroke-linecap="round" stroke-linejoin="round"/>
</mask>
<g mask="url(#mask0_388_3296)">
<path d="M20.1625 16.7315L40.6199 34.9052L21.347 54.1364L0.889648 35.9628L20.1625 16.7315Z" fill="#3C90FF"/>
<path d="M54.8587 52.7479L35.9209 35.9243L17.8635 53.9427L36.8013 70.7664L54.8587 52.7479Z" fill="#A62016"/>
<path d="M55.5644 17.6187L37.0732 1.1918L19.7785 18.4492L38.2697 34.8761L55.5644 17.6187Z" fill="#C09107"/>
<path d="M71.996 29.4388L56.4102 15.5929L35.7053 36.2531L51.2911 50.099L71.996 29.4388Z" fill="#15963A"/>
<path d="M41.5562 30.5894L40.8246 30.587L40.8198 29.2224C40.8131 27.3392 39.169 25.8054 37.15 25.7987C35.131 25.792 33.4977 27.3149 33.5043 29.1981L33.5091 30.5627L32.7776 30.5602C31.9729 30.5576 31.3167 31.1695 31.3193 31.92L31.3435 38.743C31.3461 39.4936 32.0067 40.1098 32.8114 40.1126L41.5899 40.1417C42.3946 40.1444 43.0508 39.5325 43.0482 38.782L43.0241 31.9589C43.0214 31.2083 42.3608 30.5921 41.5562 30.5894ZM37.1885 36.7156C36.3839 36.7129 35.7233 36.0967 35.7206 35.3461C35.718 34.5956 36.3742 33.9837 37.1789 33.9864C37.9836 33.989 38.6442 34.6053 38.6469 35.3558C38.6495 36.1064 37.9933 36.7183 37.1885 36.7156ZM39.4346 30.5824L34.899 30.5673L34.8943 29.2027C34.8902 28.0359 35.9036 27.0909 37.1546 27.0951C38.4055 27.0992 39.4257 28.051 39.4298 29.2178L39.4346 30.5824Z" fill="white"/>
<path d="M37.1626 36.8105C38.0036 36.8133 38.6831 36.1779 38.6803 35.3913C38.6775 34.6047 37.9935 33.9648 37.1526 33.962C36.3116 33.9592 35.6321 34.5946 35.6349 35.3812C35.6377 36.1678 36.3217 36.8077 37.1626 36.8105Z" fill="#D9D9D9"/>
</g>
<mask id="mask1_388_3296" style="mask-type:alpha" maskUnits="userSpaceOnUse" x="12" y="9" width="47" height="55">
<path d="M34.4941 59.9361C34.9187 60.1615 35.3993 60.1638 35.8244 59.9423C39.2577 58.1534 54.8094 49.3544 54.8224 36.7422L54.8383 21.309C54.8389 20.6448 54.423 20.0498 53.7981 19.8213L35.7431 13.2171C35.397 13.0905 35.0178 13.0886 34.6714 13.2121L16.603 19.6462C15.9777 19.8689 15.5605 20.4599 15.5598 21.1241L15.544 36.5573C15.531 49.1694 31.0644 58.1148 34.4941 59.9361Z" fill="white" stroke="black" stroke-width="6.78294" stroke-linecap="round" stroke-linejoin="round"/>
</mask>
<g mask="url(#mask1_388_3296)">
<path d="M18.5385 17.2742L38.5781 35.5411L19.6451 54.9315L-0.394531 36.6646L18.5385 17.2742Z" fill="#3C90FF"/>
<path d="M55.2008 53.6175L35.1611 35.3506L16.2281 54.741L36.2678 73.0079L55.2008 53.6175Z" fill="#FF3122"/>
<path d="M58.0059 16.1317L37.7188 -2.36081L17.4703 18.3768L37.7574 36.8692L58.0059 16.1317Z" fill="#FFCC39"/>
<path d="M74.1539 34.3552L54.9717 16.8699L36.0387 36.2603L55.2209 53.7456L74.1539 34.3552Z" fill="#1DBA4A"/>
<path d="M39.5032 31.194L38.7856 31.1926L38.7829 29.8188C38.7791 27.9228 37.1687 26.381 35.1883 26.3772C33.2078 26.3734 31.6035 27.9091 31.6072 29.8051L31.6099 31.1789L30.8924 31.1776C30.103 31.1761 29.4584 31.7931 29.46 32.5487L29.4735 39.4181C29.475 40.1737 30.122 40.7932 30.9113 40.7947L39.5222 40.8111C40.3115 40.8126 40.9561 40.1956 40.9545 39.44L40.941 32.5706C40.9395 31.8149 40.2925 31.1955 39.5032 31.194ZM35.21 37.3682C34.4207 37.3667 33.7736 36.7472 33.7721 35.9916C33.7707 35.236 34.4152 34.619 35.2045 34.6205C35.9939 34.622 36.6409 35.2414 36.6424 35.9971C36.6439 36.7527 35.9993 37.3697 35.21 37.3682ZM37.4222 31.19L32.9733 31.1815L32.9706 29.8077C32.9683 28.633 33.9638 27.6801 35.1908 27.6824C36.4179 27.6847 37.4172 28.6415 37.4195 29.8162L37.4222 31.19Z" fill="white"/>
<path d="M35.1848 37.4637C36.0097 37.4653 36.6771 36.8246 36.6756 36.0327C36.674 35.2408 36.004 34.5975 35.1791 34.596C34.3542 34.5944 33.6868 35.2351 33.6884 36.027C33.6899 36.8189 34.3599 37.4622 35.1848 37.4637Z" fill="#D9D9D9"/>
</g>
</g>
<defs>
<filter id="filter0_d_388_3296" x="12.1523" y="9.23523" width="72.1622" height="67.8289" filterUnits="userSpaceOnUse" color-interpolation-filters="sRGB">
<feFlood flood-opacity="0" result="BackgroundImageFix"/>
<feColorMatrix in="SourceAlpha" type="matrix" values="0 0 0 0 0 0 0 0 0 0 0 0 0 0 0 0 0 0 127 0" result="hardAlpha"/>
<feOffset dx="16.9573" dy="6.78294"/>
<feGaussianBlur stdDeviation="3.39147"/>
<feComposite in2="hardAlpha" operator="out"/>
<feColorMatrix type="matrix" values="0 0 0 0 0 0 0 0 0 0 0 0 0 0 0 0 0 0 0.25 0"/>
<feBlend mode="normal" in2="BackgroundImageFix" result="effect1_dropShadow_388_3296"/>
<feBlend mode="normal" in="SourceGraphic" in2="effect1_dropShadow_388_3296" result="shape"/>
</filter>
</defs>
</svg>
